<svg width="20" height="20" viewBox="0 0 20 20" fill="none" xmlns="http://www.w3.org/2000/svg">
<rect width="20" height="20" fill="#E5E5E5"/>
<g id="Desktop" clip-path="url(#clip0_0_1)">
<rect width="1440" height="6234" transform="translate(-167 -3342)" fill="white"/>
<g id="Frame">
<path id="Rectangle" d="M-167 -1014H1273V190H-167V-1014Z" fill="#FAFAFC"/>
<g id="Frame_2">
<g id="Frame_3">
<g id="Frame_4" clip-path="url(#clip1_0_1)">
<g id="Rectangle_2" filter="url(#filter0_d_0_1)">
<path d="M-31 -335C-31 -339.418 -27.4183 -343 -23 -343H340C344.418 -343 348 -339.418 348 -335V34C348 38.4183 344.418 42 340 42H-23C-27.4183 42 -31 38.4183 -31 34V-335Z" fill="white"/>
</g>
<g id="Frame_5">
<g id="Frame_6">
<g id="Frame_7">
<g id="IMAGE" clip-path="url(#clip2_0_1)">
<g id="Bed-Icon">
<path id="Shape" d="M18.6544 13.2792C18.6544 13.2468 18.6544 13.2792 18.6544 13.2792C18.6544 13.2468 18.6544 13.2468 18.6544 13.2468L15.9449 7.24026V1.98052C15.9449 0.909091 15.0842 0 14.0005 0H5.96767C4.91576 0 4.02322 0.876623 4.02322 1.98052V7.24026L1.31375 13.2468C1.28188 13.3117 1.25 13.4091 1.25 13.474V19.4156C1.25 19.7403 1.50501 20 1.82377 20C2.14253 20 2.39754 19.7403 2.39754 19.4156V17.6948H17.6025V19.4156C17.6025 19.7403 17.8575 20 18.1762 20C18.495 20 18.75 19.7403 18.75 19.4156V13.474C18.6862 13.4091 18.6862 13.3442 18.6544 13.2792ZM4.94763 7.92208H14.9886L17.2518 12.9221H2.7163L4.94763 7.92208ZM5.17076 1.98052C5.17076 1.52597 5.5214 1.13636 5.99954 1.13636H14.0005C14.4467 1.13636 14.8292 1.49351 14.8292 1.98052V6.78571H5.17076V1.98052ZM2.39754 16.5584V14.0584H17.6025V16.5584H2.39754Z" fill="#45525B"/>
</g>
</g>
</g>
</g>
</g>
</g>
</g>
</g>
</g>
</g>
<defs>
<filter id="filter0_d_0_1" x="-46" y="-355" width="409" height="415" filterUnits="userSpaceOnUse" color-interpolation-filters="sRGB">
<feFlood flood-opacity="0" result="BackgroundImageFix"/>
<feColorMatrix in="SourceAlpha" type="matrix" values="0 0 0 0 0 0 0 0 0 0 0 0 0 0 0 0 0 0 127 0" result="hardAlpha"/>
<feOffset dy="3"/>
<feGaussianBlur stdDeviation="7.5"/>
<feColorMatrix type="matrix" values="0 0 0 0 0 0 0 0 0 0 0 0 0 0 0 0 0 0 0.03 0"/>
<feBlend mode="normal" in2="BackgroundImageFix" result="effect1_dropShadow_0_1"/>
<feBlend mode="normal" in="SourceGraphic" in2="effect1_dropShadow_0_1" result="shape"/>
</filter>
<clipPath id="clip0_0_1">
<rect width="1440" height="6234" fill="white" transform="translate(-167 -3342)"/>
</clipPath>
<clipPath id="clip1_0_1">
<rect width="379" height="385" fill="white" transform="translate(-31 -343)"/>
</clipPath>
<clipPath id="clip2_0_1">
<rect width="20" height="20" fill="white"/>
</clipPath>
</defs>
</svg>
